<svg xmlns="http://www.w3.org/2000/svg" width="200" height="200" viewBox="0 0 200 200">
  <rect width="200" height="200" fill="#f0f2ff"/>
  <text x="100" y="100" font-family="Arial" font-size="16" fill="#7269f0" text-anchor="middle">Pet Image</text>
  <path d="M100 40 C 90 40, 80 45, 75 55 C 70 65, 70 75, 75 85 L 75 95 C 75 100, 80 105, 85 105 L 115 105 C 120 105, 125 100, 125 95 L 125 85 C 130 75, 130 65, 125 55 C 120 45, 110 40, 100 40 Z" fill="#aeaaed"/>
  <circle cx="85" cy="70" r="5" fill="#7269f0"/>
  <circle cx="115" cy="70" r="5" fill="#7269f0"/>
  <path d="M90 85 C 90 90, 110 90, 110 85" fill="none" stroke="#7269f0" stroke-width="3" stroke-linecap="round"/>
  <path d="M75 125 C 80 140, 120 140, 125 125" fill="none" stroke="#aeaaed" stroke-width="10" stroke-linecap="round"/>
</svg> 